<mxfile host="Electron" agent="Mozilla/5.0 (Macintosh; Intel Mac OS X 10_15_7) AppleWebKit/537.36 (KHTML, like Gecko) draw.io/27.0.5 Chrome/134.0.6998.205 Electron/35.3.0 Safari/537.36" version="27.0.5">
  <diagram name="第 1 页" id="OxX3UFS2mh0agLu3uTYX">
    <mxGraphModel dx="1826" dy="859" grid="1" gridSize="10" guides="1" tooltips="1" connect="1" arrows="1" fold="1" page="0" pageScale="1" pageWidth="827" pageHeight="1169" math="0" shadow="0">
      <root>
        <mxCell id="0" />
        <mxCell id="1" parent="0" />
        <mxCell id="KRwe57Z99j1TO9UKFgOj-14" style="rounded=0;orthogonalLoop=1;jettySize=auto;html=1;entryX=0.5;entryY=0;entryDx=0;entryDy=0;endArrow=classic;endFill=1;startFill=0;labelBackgroundColor=none;strokeColor=#006658;fontColor=default;" edge="1" parent="1" source="KRwe57Z99j1TO9UKFgOj-1" target="KRwe57Z99j1TO9UKFgOj-3">
          <mxGeometry relative="1" as="geometry" />
        </mxCell>
        <mxCell id="KRwe57Z99j1TO9UKFgOj-15" style="rounded=0;orthogonalLoop=1;jettySize=auto;html=1;exitX=0;exitY=1;exitDx=0;exitDy=0;entryX=1;entryY=0;entryDx=0;entryDy=0;endArrow=classic;endFill=1;startFill=0;labelBackgroundColor=none;strokeColor=#006658;fontColor=default;" edge="1" parent="1" source="KRwe57Z99j1TO9UKFgOj-1" target="KRwe57Z99j1TO9UKFgOj-2">
          <mxGeometry relative="1" as="geometry" />
        </mxCell>
        <mxCell id="KRwe57Z99j1TO9UKFgOj-16" style="rounded=0;orthogonalLoop=1;jettySize=auto;html=1;exitX=1;exitY=1;exitDx=0;exitDy=0;entryX=0;entryY=0;entryDx=0;entryDy=0;endArrow=classic;endFill=1;startFill=0;labelBackgroundColor=none;strokeColor=#006658;fontColor=default;" edge="1" parent="1" source="KRwe57Z99j1TO9UKFgOj-1" target="KRwe57Z99j1TO9UKFgOj-4">
          <mxGeometry relative="1" as="geometry" />
        </mxCell>
        <mxCell id="KRwe57Z99j1TO9UKFgOj-1" value="root" style="ellipse;whiteSpace=wrap;html=1;aspect=fixed;fontSize=20;labelBackgroundColor=none;fillColor=#21C0A5;strokeColor=#006658;fontColor=#5C5C5C;" vertex="1" parent="1">
          <mxGeometry x="200" width="80" height="80" as="geometry" />
        </mxCell>
        <mxCell id="KRwe57Z99j1TO9UKFgOj-23" style="rounded=0;orthogonalLoop=1;jettySize=auto;html=1;exitX=1;exitY=1;exitDx=0;exitDy=0;entryX=0.5;entryY=0;entryDx=0;entryDy=0;endArrow=classic;endFill=1;startFill=0;labelBackgroundColor=none;strokeColor=#006658;fontColor=default;" edge="1" parent="1" source="KRwe57Z99j1TO9UKFgOj-2" target="KRwe57Z99j1TO9UKFgOj-6">
          <mxGeometry relative="1" as="geometry" />
        </mxCell>
        <mxCell id="KRwe57Z99j1TO9UKFgOj-24" style="rounded=0;orthogonalLoop=1;jettySize=auto;html=1;exitX=0;exitY=1;exitDx=0;exitDy=0;entryX=1;entryY=0;entryDx=0;entryDy=0;endArrow=classic;endFill=1;startFill=0;labelBackgroundColor=none;strokeColor=#006658;fontColor=default;" edge="1" parent="1" source="KRwe57Z99j1TO9UKFgOj-2" target="KRwe57Z99j1TO9UKFgOj-5">
          <mxGeometry relative="1" as="geometry" />
        </mxCell>
        <mxCell id="KRwe57Z99j1TO9UKFgOj-2" value="a" style="ellipse;whiteSpace=wrap;html=1;aspect=fixed;fontSize=20;labelBackgroundColor=none;fillColor=#21C0A5;strokeColor=#006658;fontColor=#5C5C5C;" vertex="1" parent="1">
          <mxGeometry y="120" width="80" height="80" as="geometry" />
        </mxCell>
        <mxCell id="KRwe57Z99j1TO9UKFgOj-20" style="rounded=0;orthogonalLoop=1;jettySize=auto;html=1;exitX=1;exitY=1;exitDx=0;exitDy=0;entryX=0;entryY=0;entryDx=0;entryDy=0;endArrow=classic;endFill=1;startFill=0;labelBackgroundColor=none;strokeColor=#006658;fontColor=default;" edge="1" parent="1" source="KRwe57Z99j1TO9UKFgOj-3" target="KRwe57Z99j1TO9UKFgOj-8">
          <mxGeometry relative="1" as="geometry" />
        </mxCell>
        <mxCell id="KRwe57Z99j1TO9UKFgOj-3" value="b" style="ellipse;whiteSpace=wrap;html=1;aspect=fixed;fontSize=20;labelBackgroundColor=none;fillColor=#21C0A5;strokeColor=#006658;fontColor=#5C5C5C;" vertex="1" parent="1">
          <mxGeometry x="200" y="120" width="80" height="80" as="geometry" />
        </mxCell>
        <mxCell id="KRwe57Z99j1TO9UKFgOj-4" value="c" style="ellipse;whiteSpace=wrap;html=1;aspect=fixed;fontSize=20;labelBackgroundColor=none;fillColor=#21C0A5;strokeColor=#006658;fontColor=#5C5C5C;" vertex="1" parent="1">
          <mxGeometry x="400" y="120" width="80" height="80" as="geometry" />
        </mxCell>
        <mxCell id="KRwe57Z99j1TO9UKFgOj-25" style="rounded=0;orthogonalLoop=1;jettySize=auto;html=1;exitX=0;exitY=1;exitDx=0;exitDy=0;entryX=1;entryY=0;entryDx=0;entryDy=0;endArrow=classic;endFill=1;startFill=0;labelBackgroundColor=none;strokeColor=#006658;fontColor=default;" edge="1" parent="1" source="KRwe57Z99j1TO9UKFgOj-5" target="KRwe57Z99j1TO9UKFgOj-10">
          <mxGeometry relative="1" as="geometry" />
        </mxCell>
        <mxCell id="KRwe57Z99j1TO9UKFgOj-5" value="r" style="ellipse;whiteSpace=wrap;html=1;aspect=fixed;fontSize=20;labelBackgroundColor=none;fillColor=#21C0A5;strokeColor=#006658;fontColor=#5C5C5C;" vertex="1" parent="1">
          <mxGeometry x="-160" y="240" width="80" height="80" as="geometry" />
        </mxCell>
        <mxCell id="KRwe57Z99j1TO9UKFgOj-6" value="t" style="ellipse;whiteSpace=wrap;html=1;aspect=fixed;fontSize=20;labelBackgroundColor=none;fillColor=#ffe6cc;strokeColor=#d79b00;" vertex="1" parent="1">
          <mxGeometry x="40" y="240" width="80" height="80" as="geometry" />
        </mxCell>
        <mxCell id="KRwe57Z99j1TO9UKFgOj-7" value="o" style="ellipse;whiteSpace=wrap;html=1;aspect=fixed;fontSize=20;labelBackgroundColor=none;fillColor=#21C0A5;strokeColor=#006658;fontColor=#5C5C5C;" vertex="1" parent="1">
          <mxGeometry x="140" y="240" width="80" height="80" as="geometry" />
        </mxCell>
        <mxCell id="KRwe57Z99j1TO9UKFgOj-8" value="y" style="ellipse;whiteSpace=wrap;html=1;aspect=fixed;fontSize=20;labelBackgroundColor=none;fillColor=#ffe6cc;strokeColor=#d79b00;" vertex="1" parent="1">
          <mxGeometry x="280" y="240" width="80" height="80" as="geometry" />
        </mxCell>
        <mxCell id="KRwe57Z99j1TO9UKFgOj-22" style="rounded=0;orthogonalLoop=1;jettySize=auto;html=1;exitX=1;exitY=1;exitDx=0;exitDy=0;entryX=0;entryY=0;entryDx=0;entryDy=0;endArrow=classic;endFill=1;startFill=0;labelBackgroundColor=none;strokeColor=#006658;fontColor=default;" edge="1" parent="1" source="KRwe57Z99j1TO9UKFgOj-9" target="KRwe57Z99j1TO9UKFgOj-13">
          <mxGeometry relative="1" as="geometry" />
        </mxCell>
        <mxCell id="KRwe57Z99j1TO9UKFgOj-9" value="a" style="ellipse;whiteSpace=wrap;html=1;aspect=fixed;fontSize=20;labelBackgroundColor=none;fillColor=#21C0A5;strokeColor=#006658;fontColor=#5C5C5C;" vertex="1" parent="1">
          <mxGeometry x="480" y="240" width="80" height="80" as="geometry" />
        </mxCell>
        <mxCell id="KRwe57Z99j1TO9UKFgOj-10" value="e" style="ellipse;whiteSpace=wrap;html=1;aspect=fixed;fontSize=20;labelBackgroundColor=none;fillColor=#ffe6cc;strokeColor=#d79b00;" vertex="1" parent="1">
          <mxGeometry x="-240" y="360" width="80" height="80" as="geometry" />
        </mxCell>
        <mxCell id="KRwe57Z99j1TO9UKFgOj-12" value="y" style="ellipse;whiteSpace=wrap;html=1;aspect=fixed;fontSize=20;labelBackgroundColor=none;fillColor=#ffe6cc;strokeColor=#d79b00;" vertex="1" parent="1">
          <mxGeometry x="200" y="360" width="80" height="80" as="geometry" />
        </mxCell>
        <mxCell id="KRwe57Z99j1TO9UKFgOj-13" value="t" style="ellipse;whiteSpace=wrap;html=1;aspect=fixed;fontSize=20;labelBackgroundColor=none;fillColor=#ffe6cc;strokeColor=#d79b00;" vertex="1" parent="1">
          <mxGeometry x="560" y="360" width="80" height="80" as="geometry" />
        </mxCell>
        <mxCell id="KRwe57Z99j1TO9UKFgOj-17" style="rounded=0;orthogonalLoop=1;jettySize=auto;html=1;exitX=0;exitY=1;exitDx=0;exitDy=0;entryX=0.663;entryY=0.025;entryDx=0;entryDy=0;entryPerimeter=0;endArrow=classic;endFill=1;startFill=0;labelBackgroundColor=none;strokeColor=#006658;fontColor=default;" edge="1" parent="1" source="KRwe57Z99j1TO9UKFgOj-3" target="KRwe57Z99j1TO9UKFgOj-7">
          <mxGeometry relative="1" as="geometry" />
        </mxCell>
        <mxCell id="KRwe57Z99j1TO9UKFgOj-19" style="rounded=0;orthogonalLoop=1;jettySize=auto;html=1;exitX=1;exitY=1;exitDx=0;exitDy=0;entryX=0.313;entryY=0.063;entryDx=0;entryDy=0;entryPerimeter=0;endArrow=classic;endFill=1;startFill=0;labelBackgroundColor=none;strokeColor=#006658;fontColor=default;" edge="1" parent="1" source="KRwe57Z99j1TO9UKFgOj-7" target="KRwe57Z99j1TO9UKFgOj-12">
          <mxGeometry relative="1" as="geometry" />
        </mxCell>
        <mxCell id="KRwe57Z99j1TO9UKFgOj-21" style="rounded=0;orthogonalLoop=1;jettySize=auto;html=1;exitX=1;exitY=1;exitDx=0;exitDy=0;entryX=0.275;entryY=0.038;entryDx=0;entryDy=0;entryPerimeter=0;endArrow=classic;endFill=1;startFill=0;labelBackgroundColor=none;strokeColor=#006658;fontColor=default;" edge="1" parent="1" source="KRwe57Z99j1TO9UKFgOj-4" target="KRwe57Z99j1TO9UKFgOj-9">
          <mxGeometry relative="1" as="geometry" />
        </mxCell>
      </root>
    </mxGraphModel>
  </diagram>
</mxfile>
